<svg width="22" height="23" viewBox="0 0 22 23" fill="none" xmlns="http://www.w3.org/2000/svg">
<path d="M19.5312 0.6875H2.34375C1.02539 0.6875 0 1.76172 0 3.03125V20.2188C0 21.5371 1.02539 22.5625 2.34375 22.5625H19.5312C20.8008 22.5625 21.875 21.5371 21.875 20.2188V3.03125C21.875 1.76172 20.8008 0.6875 19.5312 0.6875ZM19.5312 20.2188H2.34375V3.03125H19.5312V20.2188ZM17.7734 8.45117C17.9688 8.20703 17.9688 7.86523 17.7734 7.62109L16.6504 6.49805C16.4551 6.25391 16.0645 6.25391 15.8203 6.49805L8.93555 13.334L6.00586 10.4043C5.76172 10.1602 5.41992 10.1602 5.17578 10.4043L4.05273 11.4785C3.85742 11.7227 3.85742 12.1133 4.05273 12.3086L8.49609 16.8008C8.74023 17.0449 9.08203 17.0449 9.32617 16.8008L17.7734 8.45117Z" fill="white"/>
</svg>
