<svg width="34" height="27" viewBox="0 0 34 27" fill="none" xmlns="http://www.w3.org/2000/svg">
<path d="M16.5312 7.48047L5.75 16.3867V25.9375C5.75 26.4648 6.16016 26.875 6.6875 26.875H13.25C13.7188 26.875 14.1289 26.4648 14.1289 25.9375V20.3125C14.1289 19.8438 14.5977 19.375 15.0664 19.375H18.8164C19.3438 19.375 19.7539 19.8438 19.7539 20.3125V25.9375C19.7539 26.4648 20.2227 26.875 20.6914 26.875H27.3125C27.7812 26.875 28.25 26.4648 28.25 25.9375V16.3281L17.4102 7.48047C17.293 7.36328 17.1172 7.30469 17 7.30469C16.8242 7.30469 16.6484 7.36328 16.5312 7.48047ZM33.582 13.5156L28.7188 9.47266V1.38672C28.7188 0.976562 28.3672 0.683594 28.0156 0.683594H24.7344C24.3242 0.683594 24.0312 0.976562 24.0312 1.38672V5.60547L18.7578 1.26953C18.2891 0.917969 17.6445 0.683594 17 0.683594C16.2969 0.683594 15.6523 0.917969 15.1836 1.26953L0.359375 13.5156C0.183594 13.6328 0.0664062 13.8672 0.0664062 14.043C0.0664062 14.2188 0.183594 14.3945 0.242188 14.5117L1.76562 16.3281C1.88281 16.5039 2.05859 16.5625 2.29297 16.5625C2.46875 16.5625 2.64453 16.5039 2.76172 16.3867L16.5312 5.07812C16.6484 4.96094 16.8242 4.90234 17 4.90234C17.1172 4.90234 17.293 4.96094 17.4102 5.07812L31.1797 16.3867C31.2969 16.5039 31.4727 16.5625 31.6484 16.5625C31.8828 16.5625 32.0586 16.5039 32.1758 16.3281L33.6992 14.5117C33.8164 14.3945 33.875 14.2188 33.875 14.043C33.875 13.8672 33.7578 13.6328 33.582 13.5156Z" fill="black"/>
</svg>
