<svg width="30" height="25" viewBox="0 0 30 25" fill="none" xmlns="http://www.w3.org/2000/svg">
<path d="M4.6875 19.3125H0.9375C0.410156 19.3125 0 19.7812 0 20.25V24C0 24.5273 0.410156 24.9375 0.9375 24.9375H4.6875C5.15625 24.9375 5.625 24.5273 5.625 24V20.25C5.625 19.7812 5.15625 19.3125 4.6875 19.3125ZM4.6875 0.5625H0.9375C0.410156 0.5625 0 1.03125 0 1.5V5.25C0 5.77734 0.410156 6.1875 0.9375 6.1875H4.6875C5.15625 6.1875 5.625 5.77734 5.625 5.25V1.5C5.625 1.03125 5.15625 0.5625 4.6875 0.5625ZM4.6875 9.9375H0.9375C0.410156 9.9375 0 10.4062 0 10.875V14.625C0 15.1523 0.410156 15.5625 0.9375 15.5625H4.6875C5.15625 15.5625 5.625 15.1523 5.625 14.625V10.875C5.625 10.4062 5.15625 9.9375 4.6875 9.9375ZM29.0625 20.25H10.3125C9.78516 20.25 9.375 20.7188 9.375 21.1875V23.0625C9.375 23.5898 9.78516 24 10.3125 24H29.0625C29.5312 24 30 23.5898 30 23.0625V21.1875C30 20.7188 29.5312 20.25 29.0625 20.25ZM29.0625 1.5H10.3125C9.78516 1.5 9.375 1.96875 9.375 2.4375V4.3125C9.375 4.83984 9.78516 5.25 10.3125 5.25H29.0625C29.5312 5.25 30 4.83984 30 4.3125V2.4375C30 1.96875 29.5312 1.5 29.0625 1.5ZM29.0625 10.875H10.3125C9.78516 10.875 9.375 11.3438 9.375 11.8125V13.6875C9.375 14.2148 9.78516 14.625 10.3125 14.625H29.0625C29.5312 14.625 30 14.2148 30 13.6875V11.8125C30 11.3438 29.5312 10.875 29.0625 10.875Z" fill="black"/>
</svg>
